<?xml version="1.0" encoding="UTF-8" standalone="no"?>

<svg xmlns="http://www.w3.org/2000/svg" style="background-color:white" width="1500" height="1000" >

<g transform = "rotate(-90,200.000000,100.000000)">

<rect x="129.523053" y="110.651510" width="150.000000" height="30.000000" fill="blue" transform="rotate(61.975679,129.523053,125.651510)" />

<rect x="162.500000" y="237.063746" width="75.000000" height="50.000000" fill="red" transform="rotate(0.000000,0.000000,0.000000)" />

<circle cx="200.000000" cy="100.000000" r="42.000000" fill="green" />

<circle cx="129.523053" cy="125.651510" r="21.000000" fill="green" />

<rect x="200.000000" y="79.000000" width="75.000000" height="42.000000" fill="green" transform="rotate(-200.000000,200.000000,100.000000)" />

<circle cx="200.000000" cy="100.000000" r="30.000000" fill="gray" />

<circle cx="129.523053" cy="125.651510" r="15.000000" fill="Blue" />

<circle cx="200.000000" cy="258.063746" r="15.000000" fill="Blue" />

</g>
<g>
<rect x = "387.063746" y = "62.500000" width = "100.000000" height = "75.000000" stroke = "black" stroke-width = "3" fill = "yellow"/>
</g>

<g transform  = "rotate(-30.000000,437.063746,100.000000)">
<rect x = "427.063746" y = "100.000000" width = "20.000000" height = "350.000000" stroke = "black" stroke-width = "3" fill = "orange" />
<circle cx = "437.063746" cy = "100.000000" r = "10.000000" stroke = "black" stroke-width = "3" fill = "white"/>
</g>

<g>
<rect x = "537.063746" y = "393.108891" width = "150.000000" height = "20"  stroke = "black" stroke-width = "3" fill = "black" />
</g>

<g transform = "rotate(-90,612.063746,351.108891)">

<rect x="660.272816" y="393.562225" width="150.000000" height="30.000000" fill="blue" transform="rotate(108.747237,660.272816,408.562225)" />

<rect x="574.563746" y="529.604069" width="75.000000" height="50.000000" fill="red" transform="rotate(0.000000,0.000000,0.000000)" />

<circle cx="612.063746" cy="351.108891" r="42.000000" fill="green" />

<circle cx="660.272816" cy="408.562225" r="21.000000" fill="green" />

<rect x="612.063746" y="330.108891" width="75.000000" height="42.000000" fill="green" transform="rotate(50.000000,612.063746,351.108891)" />

<circle cx="612.063746" cy="351.108891" r="30.000000" fill="gray" />

<circle cx="660.272816" cy="408.562225" r="15.000000" fill="Blue" />

<circle cx="612.063746" cy="550.604069" r="15.000000" fill="Blue" />

</g>
<g>
<rect x = "840.558923" y = "313.608891" width = "100.000000" height = "75.000000" stroke = "black" stroke-width = "3" fill = "yellow"/>
</g>

<g transform  = "rotate(30.000000,890.558923,351.108891)">
<rect x = "880.558923" y = "351.108891" width = "20.000000" height = "350.000000" stroke = "black" stroke-width = "3" fill = "orange" />
<circle cx = "890.558923" cy = "351.108891" r = "10.000000" stroke = "black" stroke-width = "3" fill = "white"/>
</g>

<g>
<rect x = "640.558923" y = "644.217783" width = "150.000000" height = "20"  stroke = "black" stroke-width = "3" fill = "black" />
</g>

</svg>