<?xml version="1.0" encoding="UTF-8" standalone="no"?>

<svg xmlns="http://www.w3.org/2000/svg" style="background-color:white" width="1500" height="1000" >

<g transform = "rotate(-90,200.000000,100.000000)">

<rect x="237.500000" y="149.951905" width="150.000000" height="30.000000" fill="blue" transform="rotate(104.477512,237.500000,164.951905)" />

<rect x="162.500000" y="289.188781" width="75.000000" height="50.000000" fill="red" transform="rotate(0.000000,0.000000,0.000000)" />

<circle cx="200.000000" cy="100.000000" r="42.000000" fill="green" />

<circle cx="237.500000" cy="164.951905" r="21.000000" fill="green" />

<rect x="200.000000" y="79.000000" width="75.000000" height="42.000000" fill="green" transform="rotate(60.000000,200.000000,100.000000)" />

<circle cx="200.000000" cy="100.000000" r="30.000000" fill="gray" />

<circle cx="237.500000" cy="164.951905" r="15.000000" fill="Blue" />

<circle cx="200.000000" cy="310.188781" r="15.000000" fill="Blue" />

</g>
<g>
<rect x = "439.188781" y = "80.000000" width = "100.000000" height = "40.000000" stroke = "black" stroke-width = "3" fill = "yellow"/>
</g>

<g transform  = "rotate(-30.000000,489.188781,100.000000)">
<rect x = "479.188781" y = "100.000000" width = "20.000000" height = "350.000000" stroke = "black" stroke-width = "3" fill = "orange" />
<circle cx = "489.188781" cy = "100.000000" r = "10.000000" stroke = "black" stroke-width = "3" fill = "white"/>
</g>

<g>
<rect x = "589.188781" y = "393.108891" width = "150.000000" height = "20"  stroke = "black" stroke-width = "3" fill = "black" />
</g>

<g transform = "rotate(-90,664.188781,351.108891)">

<rect x="701.688781" y="401.060797" width="150.000000" height="30.000000" fill="blue" transform="rotate(104.477512,701.688781,416.060797)" />

<rect x="626.688781" y="540.297672" width="75.000000" height="50.000000" fill="red" transform="rotate(0.000000,0.000000,0.000000)" />

<circle cx="664.188781" cy="351.108891" r="42.000000" fill="green" />

<circle cx="701.688781" cy="416.060797" r="21.000000" fill="green" />

<rect x="664.188781" y="330.108891" width="75.000000" height="42.000000" fill="green" transform="rotate(60.000000,664.188781,351.108891)" />

<circle cx="664.188781" cy="351.108891" r="30.000000" fill="gray" />

<circle cx="701.688781" cy="416.060797" r="15.000000" fill="Blue" />

<circle cx="664.188781" cy="561.297672" r="15.000000" fill="Blue" />

</g>
<g>
<rect x = "903.377561" y = "331.108891" width = "100.000000" height = "40.000000" stroke = "black" stroke-width = "3" fill = "yellow"/>
</g>

<g transform  = "rotate(-30.000000,953.377561,351.108891)">
<rect x = "943.377561" y = "351.108891" width = "20.000000" height = "350.000000" stroke = "black" stroke-width = "3" fill = "orange" />
<circle cx = "953.377561" cy = "351.108891" r = "10.000000" stroke = "black" stroke-width = "3" fill = "white"/>
</g>

<g>
<rect x = "1053.377561" y = "644.217783" width = "150.000000" height = "20"  stroke = "black" stroke-width = "3" fill = "black" />
</g>

</svg>