<?xml version="1.0" encoding="UTF-8" standalone="no"?>

<svg xmlns="http://www.w3.org/2000/svg" style="background-color:white" width="1500" height="1000" >

<g transform = "rotate(-90,100.000000,100.000000)">

<rect x="42.546667" y="133.209070" width="150.000000" height="30.000000" fill="blue" transform="rotate(67.478988,42.546667,148.209070)" />

<rect x="62.500000" y="265.769940" width="75.000000" height="50.000000" fill="red" transform="rotate(0.000000,0.000000,0.000000)" />

<circle cx="100.000000" cy="100.000000" r="42.000000" fill="green" />

<circle cx="42.546667" cy="148.209070" r="21.000000" fill="green" />

<rect x="100.000000" y="79.000000" width="75.000000" height="42.000000" fill="green" transform="rotate(-220.000000,100.000000,100.000000)" />

<circle cx="100.000000" cy="100.000000" r="30.000000" fill="gray" />

<circle cx="42.546667" cy="148.209070" r="15.000000" fill="Blue" />

<circle cx="100.000000" cy="286.769940" r="15.000000" fill="Blue" />

</g>
<g>
<rect x = "315.769940" y = "62.500000" width = "120.000000" height = "75.000000" stroke = "black" stroke-width = "3" fill = "yellow"/>
</g>

<g transform  = "rotate(0.000000,375.769940,100.000000)">
<rect x = "365.769940" y = "100.000000" width = "20.000000" height = "500.000000" stroke = "black" stroke-width = "3" fill = "orange" />
<circle cx = "375.769940" cy = "100.000000" r = "10.000000" stroke = "black" stroke-width = "3" fill = "white"/>
</g>

<g>
<rect x = "275.769940" y = "590.000000" width = "200.000000" height = "20"  stroke = "black" stroke-width = "3" fill = "black" />
</g>

<g transform = "rotate(-90,375.769940,513.000000)">

<rect x="445.769940" y="609.243556" width="280.000000" height="50.000000" fill="blue" transform="rotate(104.477512,445.769940,634.243556)" />

<rect x="315.769940" y="870.352391" width="120.000000" height="90.000000" fill="red" transform="rotate(0.000000,0.000000,0.000000)" />

<circle cx="375.769940" cy="513.000000" r="77.000000" fill="green" />

<circle cx="445.769940" cy="634.243556" r="35.000000" fill="green" />

<rect x="375.769940" y="478.000000" width="140.000000" height="70.000000" fill="green" transform="rotate(60.000000,375.769940,513.000000)" />

<circle cx="375.769940" cy="513.000000" r="55.000000" fill="gray" />

<circle cx="445.769940" cy="634.243556" r="25.000000" fill="Blue" />

<circle cx="375.769940" cy="905.352391" r="25.000000" fill="Blue" />

</g>
<g>
<rect x = "823.122330" y = "453.000000" width = "180.000000" height = "120.000000" stroke = "black" stroke-width = "3" fill = "yellow"/>
</g>

<g transform  = "rotate(-30.000000,913.122330,513.000000)">
<rect x = "903.122330" y = "513.000000" width = "20.000000" height = "350.000000" stroke = "black" stroke-width = "3" fill = "orange" />
<circle cx = "913.122330" cy = "513.000000" r = "10.000000" stroke = "black" stroke-width = "3" fill = "white"/>
</g>

<g>
<rect x = "913.122330" y = "806.108891" width = "350.000000" height = "20"  stroke = "black" stroke-width = "3" fill = "black" />
</g>

</svg>